#!OML:ASF F:\VICON\USERDATA\INSTALL\rory3\rory3.ASF
:FULLY-SPECIFIED
:DEGREES
378
root 0.0827384 17.6541 6.06506 1.618 10.2624 4.29043
lowerback 6.38285 -2.32588 -8.5462
upperback 1.115 -3.59962 3.12684
thorax -1.68273 -1.76595 8.37615
lowerneck -16.949 -4.52184 -13.6125
upperneck 30.4329 -3.85089 4.92523
head 13.53 -2.60292 3.64352
rclavicle 4.30369e-014 -3.18055e-015
rhumerus -38.9596 -26.9863 -63.7856
rradius 22.5198
rwrist -4.74609
rhand -10.1825 16.1735
rfingers 7.12502
rthumb 15.8079 -13.2011
lclavicle 4.30369e-014 -3.18055e-015
lhumerus -32.9635 4.12324 81.992
lradius 40.2554
lwrist -3.56062
lhand -2.27872 32.683
lfingers 7.12502
lthumb 23.406 61.2796
rfemur -28.4315 -3.15413 15.268
rtibia 28.4417
rfoot -6.35054 -7.95651
rtoes 7.78057
lfemur 13.4046 -9.16393 -26.7701
ltibia 23.886
lfoot -4.82728 -12.803
ltoes -11.4461
379
root 0.0735104 17.6673 6.26933 1.5995 10.1029 3.82759
lowerback 6.25624 -2.2881 -8.21207
upperback 1.0577 -3.51401 3.31892
thorax -1.69793 -1.72183 8.38038
lowerneck -16.8571 -4.508 -13.8998
upperneck 30.5944 -3.82939 5.14867
head 13.5907 -2.60369 3.79173
rclavicle -1.33186e-014 4.77083e-015
rhumerus -39.1334 -27.0702 -63.43
rradius 22.4916
rwrist -4.58742
rhand -10.0726 16.2134
rfingers 7.12502
rthumb 15.9138 -13.1528
lclavicle -1.33186e-014 4.77083e-015
lhumerus -33.2252 4.46121 82.1509
lradius 40.0391
lwrist -2.93137
lhand -2.62037 32.7017
lfingers 7.12502
lthumb 23.0783 61.3397
rfemur -28.2187 -2.96244 15.8926
rtibia 29.0255
rfoot -5.35366 -7.16201
rtoes 7.2185
lfemur 12.7184 -9.23622 -26.2474
ltibia 25.8414
lfoot -3.21212 -12.9108
ltoes -13.4898
380
root 0.0666578 17.6735 6.46214 1.60672 10.0181 3.74585
lowerback 6.45538 -2.26675 -8.21585
upperback 0.823208 -3.50404 3.40214
thorax -2.05207 -1.68921 8.49333
lowerneck -16.6543 -4.46796 -13.9372
upperneck 30.8441 -3.75904 5.03756
head 13.6465 -2.60278 3.77286
rclavicle -4.17448e-015 1.43125e-014
rhumerus -39.4333 -27.0128 -63.0143
rradius 22.4098
rwrist -4.56753
rhand -10.0187 16.2126
rfingers 7.12502
rthumb 15.9657 -13.1495
lclavicle -4.17448e-015 1.43125e-014
lhumerus -33.6425 4.94298 82.227
lradius 39.6196
lwrist -2.90215
lhand -2.74776 32.809
lfingers 7.12502
lthumb 22.956 61.4622
rfemur -27.8948 -3.13515 16.1877
rtibia 29.6756
rfoot -5.31839 -6.44394
rtoes 7.04067
lfemur 11.8996 -9.08899 -26.0157
ltibia 27.837
lfoot -0.945717 -13.2454
ltoes -13.7831
381
root 0.0617708 17.6832 6.66527 1.58492 9.93393 3.63786
lowerback 6.50578 -2.25536 -8.17975
upperback 0.639891 -3.49243 3.4653
thorax -2.27351 -1.66484 8.55051
lowerneck -16.6704 -4.58755 -14.2203
upperneck 31.3192 -3.89584 5.17484
head 13.8874 -2.69425 3.86671
rclavicle 2.5842e-015 -4.77083e-015
rhumerus -39.7198 -27.3932 -62.4256
rradius 22.1337
rwrist -4.11665
rhand -10.0747 16.0457
rfingers 7.12502
rthumb 15.9118 -13.3206
lclavicle 2.5842e-015 -4.77083e-015
lhumerus -33.9962 5.27306 82.2602
lradius 39.1209
lwrist -3.06578
lhand -2.87021 32.6506
lfingers 7.12502
lthumb 22.8385 61.3184
rfemur -27.519 -3.48454 16.5414
rtibia 30.3438
rfoot -5.70091 -5.83873
rtoes 8.10248
lfemur 11.0025 -8.78071 -25.6764
ltibia 29.8807
lfoot 2.07917 -13.5236
ltoes -11.215
382
root 0.0641064 17.7015 6.87539 1.44688 9.88347 3.57508
lowerback 6.39777 -2.24768 -8.11545
upperback 0.702643 -3.4679 3.48117
thorax -2.15493 -1.66183 8.51981
lowerneck -16.8164 -4.58892 -14.1636
upperneck 31.5523 -3.88024 5.13025
head 14.0173 -2.69318 3.84725
rclavicle -2.98177e-014 1.35174e-014
rhumerus -39.7425 -27.6645 -62.1464
rradius 22.0256
rwrist -3.87229
rhand -10.1475 15.8221
rfingers 7.12502
rthumb 15.8416 -13.5498
lclavicle -2.98177e-014 1.35174e-014
lhumerus -33.9696 5.58322 82.3375
lradius 38.6046
lwrist -3.19173
lhand -2.80856 32.4015
lfingers 7.12502
lthumb 22.8977 61.0619
rfemur -27.0457 -4.103 16.8278
rtibia 30.9554
rfoot -5.96394 -5.04717
rtoes 9.27828
lfemur 10.1456 -8.49612 -25.4445
ltibia 31.9272
lfoot 5.79992 -13.4778
ltoes -6.88396
383
root 0.0579832 17.7172 7.07785 1.28367 9.71536 3.14187
lowerback 6.22377 -2.20589 -7.74773
upperback 0.907633 -3.3676 3.5914
thorax -1.8776 -1.63615 8.40188
lowerneck -17.0631 -4.56689 -13.8957
upperneck 31.5191 -3.82978 4.94379
head 14.0376 -2.66009 3.73097
rclavicle 2.61402e-014 0
rhumerus -39.3499 -27.7413 -62.2972
rradius 22.0266
rwrist -4.0408
rhand -10.3157 15.4875
rfingers 7.12502
rthumb 15.6796 -13.8971
lclavicle 2.61402e-014 0
lhumerus -33.7949 5.85066 82.4374
lradius 38.3755
lwrist -3.21632
lhand -2.46277 32.662
lfingers 7.12502
lthumb 23.2295 61.281
rfemur -26.6359 -4.265 17.5044
rtibia 31.4901
rfoot -6.086 -4.51412
rtoes 10.7694
lfemur 9.15866 -8.09205 -24.7368
ltibia 33.9085
lfoot 9.91533 -13.3411
ltoes -2.72632
384
root 0.0414876 17.7311 7.27827 1.18492 9.49342 2.54881
lowerback 6.21341 -2.11783 -7.27207
upperback 0.830261 -3.21446 3.74108
thorax -2.00161 -1.55311 8.28159
lowerneck -16.8224 -4.53587 -13.7515
upperneck 31.5046 -3.84158 4.85834
head 13.9728 -2.66113 3.67048
rclavicle -2.70347e-014 2.14687e-014
rhumerus -39.4578 -28.0276 -62.0318
rradius 22.0023
rwrist -4.00339
rhand -10.4335 15.1722
rfingers 7.12502
rthumb 15.5662 -14.2214
lclavicle -2.70347e-014 2.14687e-014
lhumerus -34.1866 5.7179 82.5639
lradius 38.387
lwrist -2.98339
lhand -2.23052 32.9829
lfingers 7.12502
lthumb 23.4523 61.5736
rfemur -26.2379 -3.94293 18.337
rtibia 31.9677
rfoot -6.30333 -4.35547
rtoes 13.1492
lfemur 7.98999 -7.62923 -23.761
ltibia 35.8812
lfoot 13.9174 -13.1431
ltoes 0.98894
385
root 0.0327301 17.7465 7.4794 1.08086 9.4369 2.54369
lowerback 6.46235 -2.05763 -7.31514
upperback 0.587731 -3.15619 3.72766
thorax -2.40516 -1.49485 8.31206
lowerneck -16.46 -4.53963 -13.8683
upperneck 31.7215 -3.91498 4.98183
head 14.0041 -2.70175 3.73708
rclavicle -2.21645e-014 3.10104e-014
rhumerus -39.9503 -27.8222 -61.7602
rradius 22.2183
rwrist -4.24104
rhand -10.401 15.2154
rfingers 7.12502
rthumb 15.5975 -14.1757
lclavicle -2.21645e-014 3.10104e-014
lhumerus -34.9611 5.48402 82.7082
lradius 38.5482
lwrist -2.79482
lhand -1.84865 33.3631
lfingers 7.12502
lthumb 23.8186 61.9065
rfemur -25.6307 -4.00835 18.5096
rtibia 32.3619
rfoot -6.58007 -4.07866
rtoes 16.2463
lfemur 6.84994 -7.36696 -23.5325
ltibia 37.9157
lfoot 17.2354 -12.5868
ltoes 4.63982
386
root 0.0215235 17.7589 7.67928 0.990692 9.39011 2.6804
lowerback 6.67801 -1.9978 -7.59036
upperback 0.453824 -3.11376 3.68987
thorax -2.66252 -1.45291 8.44576
lowerneck -16.376 -4.55856 -13.9765
upperneck 31.9403 -3.99925 5.19342
head 14.0998 -2.73173 3.83553
rclavicle 1.12313e-014 -3.97569e-015
rhumerus -40.1904 -26.9029 -62.0709
rradius 22.6776
rwrist -5.14307
rhand -10.3697 15.5631
rfingers 7.12502
rthumb 15.6276 -13.8257
lclavicle 1.12313e-014 -3.97569e-015
lhumerus -35.5648 5.31331 82.8478
lradius 38.7358
lwrist -2.78894
lhand -1.24496 33.5463
lfingers 7.12502
lthumb 24.3974 62.013
rfemur -24.9508 -3.99117 18.5384
rtibia 32.6467
rfoot -7.00198 -3.9681
rtoes 21.3324
lfemur 5.62201 -7.13439 -23.4571
ltibia 40.025
lfoot 20.1281 -12.1138
ltoes 6.76525
387
root 0.00391832 17.772 7.87665 0.834729 9.35613 2.26053
lowerback 6.4681 -1.93598 -7.35151
upperback 0.689118 -2.99421 3.76802
thorax -2.3297 -1.42062 8.36322
lowerneck -16.6266 -4.61857 -13.7971
upperneck 31.9146 -4.14595 5.31372
head 14.156 -2.75321 3.82722
rclavicle -1.92821e-014 -9.54166e-015
rhumerus -39.9063 -26.9052 -62.3702
rradius 22.9212
rwrist -5.44677
rhand -10.2995 15.9826
rfingers 7.12502
rthumb 15.6952 -13.4009
lclavicle -1.92821e-014 -9.54166e-015
lhumerus -35.3232 4.971 83.0429
lradius 38.6095
lwrist -2.7977
lhand -0.694085 33.6475
lfingers 7.12502
lthumb 24.9254 62.0421
rfemur -24.2348 -3.53219 19.1345
rtibia 32.8166
rfoot -7.47685 -4.16909
rtoes 26.1799
lfemur 4.30527 -6.93651 -22.712
ltibia 42.2253
lfoot 23.2523 -11.903
ltoes 7.63011
388
root -0.0104937 17.7861 8.06488 0.582787 9.32224 1.38612
lowerback 6.58562 -1.89116 -6.584
upperback 0.701126 -2.87894 3.9834
thorax -2.4326 -1.36453 8.1487
lowerneck -16.5655 -4.63424 -13.6564
upperneck 31.9506 -4.20335 5.25036
head 14.1589 -2.77088 3.76838
rclavicle 2.18663e-014 3.73715e-014
rhumerus -39.749 -27.2926 -62.1944
rradius 22.7932
rwrist -5.1527
rhand -10.2344 15.9674
rfingers 7.12502
rthumb 15.7579 -13.4112
lclavicle 2.18663e-014 3.73715e-014
lhumerus -35.4911 4.69042 83.2444
lradius 38.5623
lwrist -2.96531
lhand -0.252059 33.4952
lfingers 7.12502
lthumb 25.3489 61.8305
rfemur -23.4914 -3.02066 20.2077
rtibia 32.8478
rfoot -7.55281 -4.44478
rtoes 27.3511
lfemur 2.9523 -6.77828 -21.4948
ltibia 44.5366
lfoot 26.6789 -11.2181
ltoes 9.25163
389
root -0.0191644 17.7929 8.2515 0.264733 9.19775 0.532107
lowerback 6.76311 -1.83014 -5.788
upperback 0.698019 -2.73998 4.19784
thorax -2.58843 -1.29456 7.91779
lowerneck -16.362 -4.65582 -13.807
upperneck 31.9198 -4.27155 5.40451
head 14.1173 -2.79948 3.84683
rclavicle -2.5842e-014 -1.43125e-014
rhumerus -39.3922 -26.6793 -62.6735
rradius 23.1349
rwrist -6.10263
rhand -10.5087 14.9122
rfingers 7.12502
rthumb 15.4937 -14.487
lclavicle -2.5842e-014 -1.43125e-014
lhumerus -35.7051 4.51042 83.449
lradius 38.4419
lwrist -3.27274
lhand 0.124988 32.8689
lfingers 7.12502
lthumb 25.7101 61.1524
rfemur -22.5755 -2.71975 21.3049
rtibia 32.7577
rfoot -7.61542 -4.56391
rtoes 27.5811
lfemur 1.62315 -6.48357 -20.342
ltibia 46.9322
lfoot 29.8917 -10.0959
ltoes 10.8694
390
root -0.0266784 17.7987 8.4457 -0.0932457 9.01669 -0.139235
lowerback 6.80374 -1.74381 -5.18831
upperback 0.842107 -2.57708 4.32902
thorax -2.51036 -1.22561 7.69625
lowerneck -16.349 -4.76073 -13.8695
upperneck 31.862 -4.49605 5.65869
head 14.124 -2.86878 3.92239
rclavicle 1.8487e-014 1.35174e-014
rhumerus -39.0064 -25.5514 -63.582
rradius 24.1805
rwrist -7.10955
rhand -10.484 13.0075
rfingers 7.12502
rthumb 15.5175 -16.3899
lclavicle 1.8487e-014 1.35174e-014
lhumerus -35.4904 4.21925 83.6509
lradius 38.034
lwrist -3.41952
lhand 0.387494 32.3381
lfingers 7.12502
lthumb 25.9615 60.585
rfemur -21.4985 -2.40269 22.2027
rtibia 32.6197
rfoot -7.89416 -4.63502
rtoes 28.3309
lfemur 0.398071 -6.02527 -19.4069
ltibia 49.3412
lfoot 32.2168 -9.21925
ltoes 10.2101
